<svg xmlns="http://www.w3.org/2000/svg" viewBox="0 0 1078 298" width="1078" height="298">
	<defs>
		<clipPath clipPathUnits="userSpaceOnUse" id="cp1">
			<path d="M-84 -619L1140 -619L1140 965L-84 965Z" />
		</clipPath>
	</defs>
	<style>
		tspan { white-space:pre }
		.shp0 { fill: #1374e9 } 
		.shp1 { fill: #548ff7 } 
		.shp2 { fill: #1374e8 } 
		.shp3 { fill: #1372ea } 
		.shp4 { fill: #e4feff } 
		.shp5 { fill: #e2e8fe } 
		.shp6 { fill: #d1fdfe } 
		.shp7 { fill: #3181e4 } 
		.shp8 { fill: #00ccff } 
		.shp9 { fill: #99b0f6 } 
		.shp10 { fill: #73eef6 } 
	</style>
	<g id="Page 1" clip-path="url(#cp1)">
		<path id="Path 1" fill-rule="evenodd" class="shp0" d="M684.09 145.3C683.64 147.21 682.87 149.74 681.77 152.82L657.9 220.17L622.52 220.17L624.57 214.38C617.99 218.88 610.36 221.13 601.75 221.13L590.36 221.13C573.48 221.13 566.84 213.41 570.41 197.94C570.53 197.44 570.79 196.59 571.19 195.44C571.57 194.31 571.83 193.47 571.95 192.96L575.16 184.08C581.86 165.69 595.82 156.49 617.08 156.49L625.8 156.49C633.39 156.49 639.09 158.55 642.89 162.66L647.89 148.58C649.41 144.2 647.92 142.02 643.42 142.02L638.02 142.02C635.55 142.02 633.9 142.15 633.07 142.4C630.58 143.17 628.72 145.36 627.5 148.96L592.16 148.96C596.16 137.77 602.09 129.92 609.95 125.42C616.79 121.43 626.19 119.44 638.16 119.44L653.21 119.44C664.79 119.44 672.94 120.92 677.65 123.88C684.32 127.87 686.45 135.01 684.09 145.3ZM634.49 185.24C635.98 181 634.25 178.87 629.27 178.87L620.65 178.87C615.54 178.87 612.25 181 610.75 185.27L608.92 190.26C607.42 194.5 609.25 196.62 614.36 196.62L623.01 196.62C628 196.62 631.22 194.5 632.72 190.26L634.49 185.24ZM585.68 143.56C584.91 146.89 583.61 151.08 581.81 156.1L578.05 166.52L544.66 166.52L547.46 158.61C547.83 157.58 548.09 156.75 548.23 156.1L548.55 154.75C549.56 150.38 547.81 148.19 543.34 148.19C539.39 148.19 536.19 150.06 533.78 153.79C532.94 155.2 531.48 158.87 529.34 164.79L509.75 220.17L474.37 220.17L509.51 120.79L543.92 120.79L540.78 129.09C547.64 122.78 556.09 119.63 566.12 119.63C575 119.63 580.98 121.43 584.07 125.03C587.16 128.64 587.69 134.82 585.68 143.56ZM491.04 145.3C490.59 147.23 489.82 149.74 488.72 152.82L464.85 220.17L429.47 220.17L431.52 214.38C424.94 218.88 417.32 221.13 408.7 221.13L397.31 221.13C380.43 221.13 373.78 213.41 377.36 197.94C377.48 197.43 377.74 196.59 378.14 195.44C378.52 194.31 378.78 193.47 378.9 192.96L382.11 184.08C388.81 165.69 402.77 156.49 424.03 156.49L432.75 156.49C440.34 156.49 446.04 158.55 449.84 162.66L454.84 148.58C456.36 144.2 454.88 142.02 450.37 142.02L444.97 142.02C442.49 142.02 440.86 142.15 440.02 142.4C437.53 143.17 435.67 145.36 434.45 148.96L399.11 148.96C403.11 137.77 409.04 129.92 416.9 125.42C423.74 121.43 433.14 119.44 445.11 119.44L460.16 119.44C471.74 119.44 479.89 120.92 484.61 123.88C491.27 127.87 493.42 135.01 491.04 145.3ZM441.44 185.24C442.93 181 441.21 178.87 436.22 178.87L427.6 178.87C422.49 178.87 419.2 181 417.7 185.27L415.87 190.26C414.37 194.5 416.2 196.62 421.31 196.62L429.96 196.62C434.95 196.62 438.17 194.5 439.67 190.26L441.44 185.24ZM325.94 1.2C348.37 2.42 370.18 9.6 384.65 27.5L372.48 68.02L305.88 68.02L325.94 1.2Z" />
		<path id="Path 2" class="shp1" d="M333.8 196.83L346.68 153.94L280.07 153.94L259.97 220.87C286.55 219.93 311.68 211.78 333.8 196.83Z" />
		<path id="Path 3" class="shp2" d="M375.96 153.94L356.54 153.94L346.57 187.14C357.88 177.56 367.79 166.31 375.96 153.94Z" />
		<path id="Path 4" class="shp0" d="M400.61 77.47L379.51 77.47L359.38 144.49L381.74 144.49C393.1 124.38 400.63 100.71 400.61 77.47Z" />
		<path id="Path 5" class="shp3" d="M391.44 37.75L382.34 68.02L400.17 68.02C399.17 57.45 396.43 47.07 391.44 37.75Z" />
		<path id="Path 6" class="shp4" d="M0 68.02L66.61 68.02L86.74 1L20.13 1L0 68.02Z" />
		<path id="Path 7" class="shp5" d="M76.47 68.02L143.08 68.02L163.2 1L96.6 1L76.47 68.02Z" />
		<path id="Path 8" class="shp6" d="M53.5 144.49L120.11 144.49L140.24 77.47L73.63 77.47L53.5 144.49Z" />
		<path id="Path 9" class="shp7" d="M229.41 68.02L296.01 68.02L316.14 1L249.53 1L229.41 68.02Z" />
		<path id="Path 10" class="shp8" d="M183.48 220.96L250.08 220.96L270.21 153.94L203.61 153.94L183.48 220.96Z" />
		<path id="Path 11" class="shp1" d="M152.94 68.02L219.55 68.02L239.67 1L173.07 1L152.94 68.02Z" />
		<path id="Path 12" class="shp9" d="M129.97 144.49L196.58 144.49L216.71 77.47L150.1 77.47L129.97 144.49Z" />
		<path id="Path 13" class="shp10" d="M107.01 220.96L173.61 220.96L193.74 153.94L127.13 153.94L107.01 220.96Z" />
		<path id="Path 14" class="shp1" d="M84.04 297.43L150.65 297.43L170.78 230.4L104.17 230.4L84.04 297.43Z" />
		<path id="Path 15" class="shp7" d="M282.91 144.49L349.52 144.49L369.65 77.47L303.04 77.47L282.91 144.49Z" />
		<path id="Path 16" fill-rule="evenodd" class="shp0" d="M1076.4 145.3C1075.95 147.22 1075.18 149.74 1074.08 152.82L1050.21 220.17L1014.83 220.17L1016.88 214.38C1010.3 218.88 1002.67 221.13 994.06 221.13L982.67 221.13C965.79 221.13 959.15 213.41 962.72 197.94C962.84 197.43 963.1 196.59 963.5 195.44C963.88 194.31 964.14 193.47 964.26 192.96L967.47 184.08C974.17 165.69 988.13 156.49 1009.39 156.49L1018.11 156.49C1025.7 156.49 1031.4 158.55 1035.2 162.66L1040.2 148.58C1041.72 144.2 1040.23 142.02 1035.73 142.02L1030.33 142.02C1027.85 142.02 1026.22 142.15 1025.38 142.4C1022.89 143.17 1021.03 145.36 1019.82 148.96L984.47 148.96C988.47 137.77 994.4 129.92 1002.26 125.42C1009.1 121.43 1018.5 119.44 1030.47 119.44L1045.52 119.44C1057.1 119.44 1065.25 120.92 1069.97 123.88C1076.63 127.87 1078.77 135.01 1076.4 145.3ZM1026.8 185.24C1028.29 181 1026.57 178.87 1021.58 178.87L1012.96 178.87C1007.85 178.87 1004.56 181 1003.06 185.27L1001.23 190.26C999.73 194.5 1001.56 196.62 1006.67 196.62L1015.32 196.62C1020.31 196.62 1023.53 194.5 1025.03 190.26L1026.8 185.24ZM977.99 143.56C977.21 146.9 975.92 151.08 974.12 156.1L970.36 166.52L936.98 166.52L939.77 158.61C940.14 157.58 940.4 156.75 940.54 156.1L940.86 154.75C941.87 150.38 940.12 148.19 935.65 148.19C931.7 148.19 928.5 150.06 926.09 153.79C925.25 155.2 923.79 158.87 921.65 164.79L902.06 220.17L866.68 220.17L901.82 120.79L936.23 120.79L933.09 129.09C939.95 122.78 948.4 119.63 958.43 119.63C967.31 119.63 973.29 121.43 976.39 125.03C979.48 128.64 980.01 134.81 977.99 143.56ZM883.82 145.3C883.37 147.23 882.6 149.74 881.5 152.82L857.63 220.17L822.25 220.17L824.3 214.38C817.73 218.88 810.1 221.13 801.48 221.13L790.09 221.13C773.21 221.13 766.57 213.41 770.14 197.94C770.26 197.43 770.52 196.59 770.92 195.44C771.31 194.31 771.56 193.47 771.68 192.96L774.89 184.08C781.59 165.69 795.55 156.49 816.81 156.49L825.53 156.49C833.12 156.49 838.82 158.55 842.62 162.66L847.62 148.58C849.14 144.2 847.66 142.02 843.15 142.02L837.75 142.02C835.27 142.02 833.64 142.15 832.8 142.4C830.31 143.17 828.45 145.36 827.23 148.96L791.89 148.96C795.89 137.77 801.82 129.92 809.68 125.42C816.52 121.43 825.92 119.44 837.89 119.44L852.94 119.44C864.52 119.44 872.67 120.92 877.39 123.88C884.05 127.87 886.2 135.01 883.82 145.3ZM834.22 185.24C835.71 181 833.99 178.87 829 178.87L820.38 178.87C815.27 178.87 811.98 181 810.48 185.27L808.65 190.26C807.15 194.5 808.98 196.62 814.09 196.62L822.74 196.62C827.73 196.62 830.95 194.5 832.45 190.26L834.22 185.24Z" />
		<path id="Path 17" fill-rule="evenodd" class="shp0" d="M709.35 96.99L759.18 96.99C767.97 96.99 774.82 97.69 779.67 99.17C787.74 101.62 791.77 106.36 791.77 113.29C791.77 116.6 791.05 120.05 789.75 123.68L777.49 157.98C773.29 169.74 766.89 177.95 758.1 182.49C751.07 186.12 740.56 187.92 726.6 187.92L712.88 187.92L701.09 221.13L664.97 221.13L709.35 96.99ZM735.38 124.92L722.97 159.99L731.35 159.99C737.14 159.99 741.12 157.02 743.29 151.1L749.35 134.13C750.07 132.24 750.43 130.64 750.43 129.3C750.43 126.37 748.31 124.92 744.07 124.92L735.38 124.92Z" />
	</g>
</svg>